<svg width="22" height="22" viewBox="0 0 22 22" fill="none" xmlns="http://www.w3.org/2000/svg">
<path d="M21.0624 0H0.8776C0.392177 0 0 0.392177 0 0.8776V21.0624C0 21.5478 0.392177 21.94 0.8776 21.94H21.0624C21.5478 21.94 21.94 21.5478 21.94 21.0624V0.8776C21.94 0.392177 21.5478 0 21.0624 0ZM18.5283 6.40374H16.7759C15.4019 6.40374 15.1359 7.05645 15.1359 8.01633V10.1308H18.4159L17.9881 13.441H15.1359V21.94H11.716V13.4437H8.85553V10.1308H11.716V7.68997C11.716 4.85697 13.4465 3.31294 15.9751 3.31294C17.1872 3.31294 18.2267 3.40344 18.5311 3.44458V6.40374H18.5283Z" fill="white"/>
</svg>
