<svg width="22" height="22" viewBox="0 0 22 22" fill="none" xmlns="http://www.w3.org/2000/svg">
<path d="M11 0C8.08262 0 5.28473 1.09793 3.22183 3.05226C1.15893 5.00658 0 7.65722 0 10.4211V18.5263C0 20.4484 1.63778 22 3.66667 22H7.33333V12.7368H2.44444V10.4211C2.44444 5.94 6.27 2.31579 11 2.31579C15.73 2.31579 19.5556 5.94 19.5556 10.4211V12.7368H14.6667V22H18.3333C20.3622 22 22 20.4484 22 18.5263V10.4211C22 7.65722 20.8411 5.00658 18.7782 3.05226C16.7153 1.09793 13.9174 0 11 0Z" fill="#2D161E"/>
</svg>
