<svg width="37" height="40" viewBox="0 0 37 40" fill="none" xmlns="http://www.w3.org/2000/svg">
<path d="M21.7873 38.2951H18.3635V15.4289C22.1786 15.4289 25.578 16.2441 26.8008 16.6517C32.9147 10.4155 27.4122 5.64661 27.1676 5.40205C26.972 5.2064 28.1459 4.17926 28.7573 3.69014C27.8768 1.73367 27.7383 1.08152 27.779 1C32.0588 1.85595 35.238 5.52433 35.4826 11.0269C35.6782 15.4289 31.9773 19.3011 30.1023 20.6869C30.1431 22.0728 30.3805 26.0012 30.1023 30.5915C29.8578 34.6268 25.578 38.2951 21.7873 38.2951Z" fill="#E5E5E5" stroke="#6C7490" stroke-width="1.46735"/>
<path d="M14.7029 38.2951H18.1267V15.4289C14.3116 15.4289 10.9122 16.2441 9.68945 16.6517C3.57549 10.4155 9.07805 5.64661 9.32261 5.40205C9.51826 5.2064 8.34438 4.17926 7.73298 3.69014C8.61339 1.73367 8.75198 1.08152 8.71122 1C4.43145 1.85595 1.25219 5.52433 1.00763 11.0269C0.811985 15.4289 4.51297 19.3011 6.38791 20.6869C6.34715 22.0728 6.10971 26.0012 6.38791 30.5915C6.63247 34.6268 10.9122 38.2951 14.7029 38.2951Z" fill="#E5E5E5" stroke="#6C7490" stroke-width="1.46735"/>
<ellipse cx="24.2329" cy="28.6352" rx="3.42382" ry="4.15749" fill="#6C7490"/>
<ellipse cx="12.0051" cy="28.6352" rx="3.42382" ry="4.15749" fill="#6C7490"/>
<rect x="17.3853" y="16.1627" width="1.71191" height="21.3988" fill="#E5E5E5"/>
</svg>
