<svg width="16" height="16" viewBox="0 0 16 16" fill="none" xmlns="http://www.w3.org/2000/svg">
<path d="M14 14L11.1047 11.1047M11.1047 11.1047C11.6 10.6094 11.9928 10.0215 12.2608 9.37442C12.5289 8.72734 12.6668 8.0338 12.6668 7.33341C12.6668 6.63302 12.5289 5.93948 12.2608 5.2924C11.9928 4.64532 11.6 4.05737 11.1047 3.56212C10.6094 3.06687 10.0215 2.67401 9.37442 2.40598C8.72734 2.13795 8.0338 2 7.33341 2C6.63302 2 5.93948 2.13795 5.2924 2.40598C4.64532 2.67401 4.05737 3.06687 3.56212 3.56212C2.56191 4.56233 2 5.9189 2 7.33341C2 8.74792 2.56191 10.1045 3.56212 11.1047C4.56233 12.1049 5.9189 12.6668 7.33341 12.6668C8.74792 12.6668 10.1045 12.1049 11.1047 11.1047Z" stroke="white" stroke-width="2.5" stroke-linecap="round" stroke-linejoin="round"/>
</svg>
