<svg width="38" height="38" viewBox="0 0 38 38" fill="none" xmlns="http://www.w3.org/2000/svg">
<path d="M19 0C13.9609 0 9.12816 2.00178 5.56497 5.56497C2.00178 9.12816 0 13.9609 0 19C0 24.0391 2.00178 28.8718 5.56497 32.435C9.12816 35.9982 13.9609 38 19 38C24.0391 38 28.8718 35.9982 32.435 32.435C35.9982 28.8718 38 24.0391 38 19C38 13.9609 35.9982 9.12816 32.435 5.56497C28.8718 2.00178 24.0391 0 19 0ZM27.7139 27.4027C27.5493 27.6702 27.2855 27.8616 26.9802 27.9351C26.6748 28.0085 26.3528 27.958 26.0846 27.7946C21.622 25.0705 16.0075 24.453 9.39312 25.9659C9.08668 26.0358 8.76502 25.9811 8.49889 25.8139C8.23277 25.6466 8.04398 25.3805 7.97406 25.0741C7.90414 24.7676 7.95882 24.446 8.12607 24.1798C8.29332 23.9137 8.55943 23.7249 8.86588 23.655C16.1049 22.002 22.3131 22.7121 27.3196 25.7735C27.5875 25.9377 27.7794 26.2013 27.8533 26.5067C27.9272 26.8121 27.8771 27.1343 27.7139 27.4027ZM30.039 22.23C29.8332 22.5647 29.503 22.804 29.1209 22.8953C28.7388 22.9866 28.3361 22.9224 28.0013 22.7169C22.895 19.5795 15.1098 18.6699 9.06775 20.5034C8.69999 20.5908 8.31275 20.5346 7.98501 20.3462C7.65727 20.1579 7.41372 19.8516 7.30405 19.4899C7.19438 19.1282 7.22684 18.7382 7.39482 18.3996C7.56279 18.061 7.85363 17.7992 8.208 17.6676C15.1074 15.5753 23.6859 16.5894 29.5497 20.1923C29.8848 20.3976 30.1246 20.7277 30.2163 21.1098C30.3081 21.492 30.2443 21.8949 30.039 22.23ZM30.2385 16.8435C24.1158 13.205 14.0125 12.8701 8.16525 14.6442C7.71425 14.7809 7.22742 14.7329 6.81187 14.5106C6.39631 14.2884 6.08606 13.9101 5.94938 13.4591C5.81269 13.0081 5.86076 12.5213 6.08301 12.1057C6.30527 11.6902 6.6835 11.3799 7.1345 11.2433C13.8439 9.20788 25.0016 9.59975 32.053 13.7845C32.4586 14.0251 32.7521 14.417 32.8688 14.874C32.9855 15.331 32.9159 15.8156 32.6753 16.2212C32.4346 16.6269 32.0427 16.9203 31.5857 17.037C31.1288 17.1537 30.6441 17.0841 30.2385 16.8435Z" fill="#2D161E"/>
</svg>
