<svg width="22" height="16" viewBox="0 0 22 16" fill="none" xmlns="http://www.w3.org/2000/svg">
<path d="M21.4972 2.37182C21.3723 1.91684 21.1283 1.50191 20.7894 1.16833C20.4504 0.83475 20.0284 0.594156 19.5654 0.470494C17.8485 0.00754435 10.9798 8.17861e-06 10.9798 8.17861e-06C10.9798 8.17861e-06 4.11211 -0.00752843 2.3941 0.434965C1.93135 0.564318 1.51024 0.808315 1.17118 1.14353C0.83212 1.47875 0.586507 1.89393 0.457919 2.34921C0.0051197 4.03521 0.000734028 7.53209 0.000734028 7.53209C0.000734028 7.53209 -0.00365142 11.0462 0.445859 12.715C0.698024 13.6376 1.43807 14.3665 2.37875 14.6152C4.11321 15.0782 10.9633 15.0857 10.9633 15.0857C10.9633 15.0857 17.8321 15.0932 19.549 14.6518C20.0122 14.5284 20.4345 14.2883 20.7743 13.9554C21.1141 13.6225 21.3595 13.2083 21.4862 12.7537C21.9401 11.0688 21.9434 7.573 21.9434 7.573C21.9434 7.573 21.9654 4.05782 21.4972 2.37182ZM8.78264 10.7717L8.78812 4.3119L14.4969 7.54716L8.78264 10.7717Z" fill="#F8FAFD"/>
</svg>
